<mxfile host="Electron" agent="Mozilla/5.0 (Windows NT 10.0; Win64; x64) AppleWebKit/537.36 (KHTML, like Gecko) draw.io/28.1.2 Chrome/138.0.7204.243 Electron/37.4.0 Safari/537.36" version="28.1.2">
  <diagram name="Page-1" id="t-5Y3yDunQalcg0HqAGa">
    <mxGraphModel dx="1584" dy="934" grid="1" gridSize="10" guides="1" tooltips="1" connect="1" arrows="1" fold="1" page="1" pageScale="1" pageWidth="827" pageHeight="1169" math="0" shadow="0">
      <root>
        <mxCell id="0" />
        <mxCell id="1" parent="0" />
        <mxCell id="5x47AV5quTTACVVAW1_3-1" value="ui" style="rounded=1;whiteSpace=wrap;html=1;fontSize=20;" vertex="1" parent="1">
          <mxGeometry x="30" y="40" width="270" height="60" as="geometry" />
        </mxCell>
        <mxCell id="5x47AV5quTTACVVAW1_3-21" style="edgeStyle=orthogonalEdgeStyle;rounded=0;orthogonalLoop=1;jettySize=auto;html=1;entryX=0.5;entryY=0;entryDx=0;entryDy=0;" edge="1" parent="1" source="5x47AV5quTTACVVAW1_3-2" target="5x47AV5quTTACVVAW1_3-4">
          <mxGeometry relative="1" as="geometry" />
        </mxCell>
        <mxCell id="5x47AV5quTTACVVAW1_3-2" value="&lt;font&gt;CameraView&lt;/font&gt;" style="rounded=1;whiteSpace=wrap;html=1;fontSize=20;fillColor=#1ba1e2;fontColor=#ffffff;strokeColor=#006EAF;" vertex="1" parent="1">
          <mxGeometry x="610" y="50" width="190" height="40" as="geometry" />
        </mxCell>
        <mxCell id="5x47AV5quTTACVVAW1_3-4" value="Return" style="swimlane;fontStyle=0;childLayout=stackLayout;horizontal=1;startSize=30;horizontalStack=0;resizeParent=1;resizeParentMax=0;resizeLast=0;collapsible=1;marginBottom=0;whiteSpace=wrap;html=1;fontSize=17;" vertex="1" parent="1">
          <mxGeometry x="605" y="130" width="200" height="60" as="geometry" />
        </mxCell>
        <mxCell id="5x47AV5quTTACVVAW1_3-5" value="frame =&amp;gt; np.array" style="text;strokeColor=none;fillColor=none;align=left;verticalAlign=middle;spacingLeft=4;spacingRight=4;overflow=hidden;points=[[0,0.5],[1,0.5]];portConstraint=eastwest;rotatable=0;whiteSpace=wrap;html=1;fontSize=16;" vertex="1" parent="5x47AV5quTTACVVAW1_3-4">
          <mxGeometry y="30" width="200" height="30" as="geometry" />
        </mxCell>
        <mxCell id="5x47AV5quTTACVVAW1_3-16" style="edgeStyle=orthogonalEdgeStyle;rounded=0;orthogonalLoop=1;jettySize=auto;html=1;entryX=1;entryY=0.5;entryDx=0;entryDy=0;" edge="1" parent="1" source="5x47AV5quTTACVVAW1_3-5" target="5x47AV5quTTACVVAW1_3-11">
          <mxGeometry relative="1" as="geometry" />
        </mxCell>
        <mxCell id="5x47AV5quTTACVVAW1_3-28" value="" style="edgeStyle=orthogonalEdgeStyle;rounded=0;orthogonalLoop=1;jettySize=auto;html=1;" edge="1" parent="1" source="5x47AV5quTTACVVAW1_3-11" target="5x47AV5quTTACVVAW1_3-26">
          <mxGeometry relative="1" as="geometry" />
        </mxCell>
        <mxCell id="5x47AV5quTTACVVAW1_3-11" value="Current frame" style="rounded=1;whiteSpace=wrap;html=1;fontSize=14;" vertex="1" parent="1">
          <mxGeometry x="390" y="160" width="130" height="40" as="geometry" />
        </mxCell>
        <mxCell id="5x47AV5quTTACVVAW1_3-26" value="Live view" style="rounded=1;whiteSpace=wrap;html=1;strokeWidth=2;fillWeight=4;hachureGap=8;hachureAngle=45;fillColor=#1ba1e2;sketch=1;" vertex="1" parent="1">
          <mxGeometry x="220" y="190" width="120" height="60" as="geometry" />
        </mxCell>
        <mxCell id="5x47AV5quTTACVVAW1_3-29" value="Detection view" style="rounded=1;whiteSpace=wrap;html=1;strokeWidth=2;fillWeight=4;hachureGap=8;hachureAngle=45;fillColor=#1ba1e2;sketch=1;" vertex="1" parent="1">
          <mxGeometry x="210" y="310" width="120" height="60" as="geometry" />
        </mxCell>
        <mxCell id="5x47AV5quTTACVVAW1_3-31" style="edgeStyle=orthogonalEdgeStyle;rounded=0;orthogonalLoop=1;jettySize=auto;html=1;entryX=1;entryY=0.5;entryDx=0;entryDy=0;" edge="1" parent="1" source="5x47AV5quTTACVVAW1_3-30" target="5x47AV5quTTACVVAW1_3-29">
          <mxGeometry relative="1" as="geometry" />
        </mxCell>
        <mxCell id="5x47AV5quTTACVVAW1_3-30" value="&lt;font&gt;Ocr worker&lt;/font&gt;" style="rounded=1;whiteSpace=wrap;html=1;fontSize=20;fillColor=#1ba1e2;fontColor=#ffffff;strokeColor=#006EAF;" vertex="1" parent="1">
          <mxGeometry x="380" y="360" width="150" height="40" as="geometry" />
        </mxCell>
        <mxCell id="5x47AV5quTTACVVAW1_3-38" style="edgeStyle=orthogonalEdgeStyle;rounded=0;orthogonalLoop=1;jettySize=auto;html=1;" edge="1" parent="1" source="5x47AV5quTTACVVAW1_3-34" target="5x47AV5quTTACVVAW1_3-37">
          <mxGeometry relative="1" as="geometry" />
        </mxCell>
        <mxCell id="5x47AV5quTTACVVAW1_3-34" value="ถ่ายภาพ" style="html=1;shadow=0;dashed=0;shape=mxgraph.bootstrap.rrect;rSize=5;strokeColor=none;strokeWidth=1;fillColor=#1CA5B8;fontColor=#FFFFFF;whiteSpace=wrap;align=center;verticalAlign=middle;spacingLeft=0;fontStyle=0;fontSize=16;spacing=5;" vertex="1" parent="1">
          <mxGeometry x="660" y="260" width="110" height="40" as="geometry" />
        </mxCell>
        <mxCell id="5x47AV5quTTACVVAW1_3-41" style="edgeStyle=orthogonalEdgeStyle;rounded=0;orthogonalLoop=1;jettySize=auto;html=1;entryX=1;entryY=0.5;entryDx=0;entryDy=0;" edge="1" parent="1" source="5x47AV5quTTACVVAW1_3-37" target="5x47AV5quTTACVVAW1_3-30">
          <mxGeometry relative="1" as="geometry" />
        </mxCell>
        <mxCell id="5x47AV5quTTACVVAW1_3-37" value="ดึงภาพ" style="rounded=1;whiteSpace=wrap;html=1;fontSize=14;" vertex="1" parent="1">
          <mxGeometry x="390" y="260" width="130" height="40" as="geometry" />
        </mxCell>
        <mxCell id="5x47AV5quTTACVVAW1_3-40" style="edgeStyle=orthogonalEdgeStyle;rounded=0;orthogonalLoop=1;jettySize=auto;html=1;entryX=0.602;entryY=0.039;entryDx=0;entryDy=0;entryPerimeter=0;" edge="1" parent="1" source="5x47AV5quTTACVVAW1_3-11" target="5x47AV5quTTACVVAW1_3-37">
          <mxGeometry relative="1" as="geometry" />
        </mxCell>
      </root>
    </mxGraphModel>
  </diagram>
</mxfile>
